<svg width="26" height="30" viewBox="0 0 26 30" fill="none" xmlns="http://www.w3.org/2000/svg">
<path d="M16.486 17.562C16.486 18.138 16.342 18.69 16.054 19.218C15.766 19.734 15.34 20.166 14.776 20.514C14.224 20.862 13.558 21.06 12.778 21.108V22.566H11.806V21.108C10.714 21.012 9.826 20.664 9.142 20.064C8.458 19.452 8.11 18.678 8.098 17.742H9.844C9.892 18.246 10.078 18.684 10.402 19.056C10.738 19.428 11.206 19.662 11.806 19.758V15.258C11.002 15.054 10.354 14.844 9.862 14.628C9.37 14.412 8.95 14.076 8.602 13.62C8.254 13.164 8.08 12.552 8.08 11.784C8.08 10.812 8.416 10.008 9.088 9.372C9.772 8.736 10.678 8.382 11.806 8.31V6.816H12.778V8.31C13.798 8.394 14.62 8.724 15.244 9.3C15.868 9.864 16.228 10.602 16.324 11.514H14.578C14.518 11.094 14.332 10.716 14.02 10.38C13.708 10.032 13.294 9.804 12.778 9.696V14.088C13.57 14.292 14.212 14.502 14.704 14.718C15.208 14.922 15.628 15.252 15.964 15.708C16.312 16.164 16.486 16.782 16.486 17.562ZM9.754 11.694C9.754 12.282 9.928 12.732 10.276 13.044C10.624 13.356 11.134 13.614 11.806 13.818V9.66C11.182 9.72 10.684 9.924 10.312 10.272C9.94 10.608 9.754 11.082 9.754 11.694ZM12.778 19.776C13.426 19.704 13.93 19.47 14.29 19.074C14.662 18.678 14.848 18.204 14.848 17.652C14.848 17.064 14.668 16.614 14.308 16.302C13.948 15.978 13.438 15.72 12.778 15.528V19.776Z" fill="white"/>
<path d="M12.6923 1C9.72264 1.21212 3.23173 4.39394 1.02567 15.4242C0.742844 19.596 2.68022 28.1515 12.6923 29" stroke="white" stroke-width="2"/>
<path d="M12.4541 1C15.4238 1.21212 21.9148 4.39394 24.1208 15.4242C24.4036 19.596 22.4663 28.1515 12.4541 29" stroke="white" stroke-width="2"/>
</svg>
