<svg width="43" height="37" viewBox="0 0 43 37" fill="none" xmlns="http://www.w3.org/2000/svg">
<path d="M19.474 33.4198C19.4739 33.4198 19.4734 33.419 19.4725 33.4176C19.4735 33.419 19.474 33.4198 19.474 33.4198Z" stroke="#F8F8F8" stroke-width="2"/>
<mask id="path-2-inside-1_1908_1501" fill="white">
<path d="M18.8348 12.1037C19.911 12.2247 20.9885 12.3364 22.0634 12.4708C22.5804 12.5352 22.6341 12.5308 22.7446 12.016C22.9732 10.9497 23.3171 9.93441 23.8017 8.9487C25.2679 5.96584 27.643 4.02205 30.6706 2.80324C31.9932 2.27069 33.3594 1.89057 34.7944 1.82293C36.3699 1.74862 37.843 2.09984 39.1492 2.99696C39.5541 3.27514 39.8811 3.67178 40.2187 4.03761C40.2851 4.10969 40.2711 4.30404 40.2254 4.41328C40.1962 4.48283 40.031 4.54729 39.9428 4.53046C39.616 4.46885 39.2981 4.36342 38.9729 4.29166C38.5134 4.19035 38.051 4.10207 37.5884 4.01601C37.5458 4.00807 37.4928 4.05507 37.4448 4.07635C37.4737 4.11985 37.4925 4.18527 37.5328 4.20369C38.1666 4.49108 38.7976 4.78515 39.4401 5.0519C40.4439 5.46886 41.2651 6.11446 41.9085 6.98331C42.5226 7.81278 42.7891 8.7715 42.8951 9.78261C42.9037 9.86359 42.9123 9.98141 42.8669 10.0233C42.778 10.1049 42.6052 10.2218 42.5474 10.1878C42.3124 10.049 42.0917 9.87598 41.8961 9.68417C41.5191 9.31453 41.1759 8.91027 40.7957 8.54381C39.4515 7.24847 37.8068 6.64828 35.9745 6.50442C35.5887 6.47426 35.2 6.47045 34.8129 6.47648C34.7249 6.47807 34.6382 6.57143 34.5512 6.62224C34.6039 6.68417 34.6446 6.76832 34.7113 6.8042C35.0539 6.98871 35.4035 7.16019 35.75 7.33771C36.5179 7.73085 37.3022 8.09604 38.045 8.53174C38.394 8.73625 38.6903 9.05413 38.9586 9.36534C39.1555 9.59398 39.0368 9.84327 38.7468 9.93981C38.6678 9.96616 38.5865 9.98776 38.5048 10.0043C38.3153 10.0427 38.1247 10.0764 37.9345 10.1122C38.0161 10.2736 38.1025 10.4327 38.1781 10.5965C38.2873 10.8328 38.219 11.0487 38.0301 11.1951C37.8351 11.3466 37.6147 11.4752 37.388 11.5737C36.4842 11.9649 35.5232 12.1183 34.5518 12.2196C34.3861 12.2367 34.2181 12.2393 34.0549 12.2694C33.8551 12.3063 33.7976 12.4676 33.9164 12.6477C33.9926 12.7636 34.0901 12.8652 34.1717 12.9779C35.1844 14.3765 35.2555 15.9144 34.838 17.5225C34.8176 17.601 34.7684 17.6737 34.724 17.7432C34.6249 17.8979 34.4086 17.9239 34.3 17.7763C34.1523 17.5756 34.0196 17.3615 33.9002 17.1427C33.3804 16.1907 32.6093 15.4771 31.744 14.8525C31.702 14.8223 31.6417 14.8172 31.5899 14.8004C31.5823 14.8715 31.5455 14.957 31.5718 15.0119C31.7754 15.4387 31.997 15.8569 32.2022 16.2828C32.5674 17.0414 32.5493 17.848 32.4845 18.6591C32.4823 18.6867 32.481 18.7185 32.4667 18.7401C32.4229 18.8074 32.3721 18.9255 32.326 18.9246C32.2311 18.9224 32.1006 18.8827 32.0498 18.8115C31.7576 18.405 31.4934 17.9782 31.2009 17.5721C31.0726 17.3942 30.9011 17.2472 30.7465 17.0891C30.7306 17.0729 30.6811 17.0634 30.6703 17.0738C30.6369 17.1065 30.589 17.1532 30.5928 17.1897C30.6261 17.4924 30.6836 17.7928 30.7058 18.0961C30.7198 18.2885 30.7058 18.4883 30.669 18.6778C30.602 19.0224 30.3359 19.131 30.0494 18.9309C29.7989 18.7556 29.5683 18.5521 29.3232 18.3685C29.145 18.2352 28.9627 18.1059 28.7722 17.9919C28.7103 17.9547 28.5969 17.9386 28.5429 17.9713C28.4928 18.0017 28.4543 18.1212 28.4724 18.1831C28.589 18.5803 28.5128 18.9601 28.3737 19.3285C28.1822 19.8363 27.8659 19.9509 27.394 19.7067C27.32 19.6683 27.2552 19.6115 27.1803 19.5765C26.9824 19.4844 26.7744 19.3168 26.5829 19.3323C26.3067 19.3549 26.401 19.6937 26.3006 19.8801C26.1161 20.2228 25.9602 20.581 25.7878 20.9303C25.6623 21.1843 25.6544 21.4092 25.9145 21.5883C25.9831 21.6353 26.0482 21.6902 26.1053 21.7502C26.4734 22.1361 26.4254 22.2952 25.8779 22.4438C25.7366 22.4819 25.6115 22.4997 25.576 22.6677C25.5112 22.9725 25.2746 23.044 25.012 23.0634C24.762 23.0818 24.5086 23.0659 24.2616 23.0999C23.9348 23.1447 23.6137 23.1875 23.3641 23.4743C23.2314 23.6267 22.9954 23.7045 22.7922 23.7753C22.5569 23.8569 22.3089 23.9128 22.0618 23.9452C21.6194 24.0037 21.3581 24.1834 21.3451 24.6826C21.3356 25.0557 21.0059 25.2275 20.7217 25.4124C20.186 25.7604 19.6341 26.0904 19.1333 26.4841C18.0326 27.3501 17.2266 28.427 16.9145 29.8252C16.7512 30.5572 16.5801 31.2873 16.4079 32.017C16.3409 32.3009 16.3879 32.5524 16.5137 32.8208C16.6277 33.0637 16.6801 33.3451 16.7109 33.615C16.7385 33.8579 16.6588 34.0666 16.3343 34.0069C16.1739 33.9773 16.0678 34.0402 16.0259 34.2022C15.998 34.3098 15.964 34.4162 15.9402 34.5248C15.728 35.4892 15.8074 35.4102 16.42 35.8316C16.6934 36.0199 16.9465 36.2412 17.1879 36.4699C17.2473 36.5261 17.2682 36.695 17.2269 36.7655C17.185 36.8373 17.0421 36.889 16.9481 36.8821C16.8144 36.8722 16.668 36.8268 16.5566 36.7522C15.9472 36.3454 15.287 36.4187 14.6213 36.5242C14.3467 36.5677 14.0742 36.6312 13.7982 36.6572C13.5493 36.6807 13.3273 36.6601 13.146 36.4041C12.9214 36.0875 12.5537 36.1812 12.2206 36.2136C11.7509 36.2596 11.2803 36.3 10.8093 36.3254C10.6455 36.3343 10.4756 36.3073 10.3146 36.2695C10.1005 36.2193 10.0275 35.9405 10.2002 35.816C10.3546 35.7049 10.5324 35.6159 10.7125 35.5521C11.4537 35.2892 12.2193 35.1628 13.0075 35.1863C13.1745 35.1914 13.3412 35.1996 13.5083 35.2018C13.7579 35.205 13.9437 35.0996 14.0189 34.8551C14.4432 33.4759 15.0551 32.1577 15.2323 30.6979C15.4422 28.9687 14.8074 27.6696 13.4394 26.6524C12.2231 25.748 10.8954 25.0532 9.5067 24.4664C8.47526 24.0307 7.50002 23.5092 6.62895 22.7947C4.64609 21.1678 3.82932 19.0433 3.92776 16.527C3.98016 15.1878 4.23135 13.8785 4.52859 12.5733C4.73215 11.6804 4.86108 10.7702 5.01383 9.86613C5.03034 9.76896 4.9843 9.66099 4.96715 9.5581C4.90745 9.63082 4.81789 9.69465 4.79344 9.77785C4.73056 9.98998 4.71214 10.2155 4.64768 10.4269C4.527 10.8245 4.42793 11.237 4.24438 11.6057C3.94333 12.2107 3.43428 12.4384 2.79408 12.3368C2.21421 12.2447 1.72452 11.7813 1.63656 11.1723C1.55304 10.5921 1.54764 10.0074 1.75818 9.44028C1.87441 9.12748 1.99762 8.81183 2.06082 8.48633C2.15037 8.02491 1.89315 7.80325 1.43078 7.91218C1.21452 7.96299 1.00842 8.05635 0.792162 8.10589C0.632429 8.14273 0.462213 8.16083 0.298986 8.15035C0.0363623 8.1332 -0.092884 7.87312 0.0760589 7.66892C0.305021 7.39233 0.574321 7.14876 0.829958 6.89439C1.08432 6.64129 1.08146 6.63272 0.90458 6.33834C0.747705 6.07762 0.57495 5.81913 0.469202 5.53745C0.369488 5.27165 0.373617 4.98013 0.656882 4.79023C0.845197 4.66415 0.880444 4.513 0.833127 4.29038C0.752466 3.91026 0.690547 3.52252 0.665459 3.1351C0.625764 2.51807 0.783908 2.30562 1.41395 2.15605C1.64259 2.10175 1.74739 1.99854 1.80043 1.79086C1.86902 1.52252 1.92237 1.24529 2.03034 0.992507C2.16975 0.666371 2.34854 0.562529 2.69658 0.696857C3.04495 0.831503 3.21294 0.725755 3.35616 0.436457C3.39236 0.3631 3.44952 0.297047 3.50827 0.238933C3.87918 -0.126263 4.25263 -0.0703715 4.51399 0.389775C4.55495 0.461544 4.57306 0.546015 4.60926 0.620642C4.68929 0.785774 4.81409 0.780694 4.95127 0.69908C5.04686 0.642237 5.13768 0.577136 5.23295 0.519022C5.55146 0.324674 5.85727 0.260209 6.10338 0.627628C6.21993 0.801969 6.36886 0.788633 6.54066 0.73433C7.695 0.369451 8.54638 1.77371 8.30948 2.72036C8.04432 3.7807 7.33584 4.37549 6.15768 4.47552C5.99763 4.48918 5.84076 4.54126 5.6823 4.57556C5.75026 4.82389 5.98843 4.81404 6.15007 4.81468C6.91476 4.81786 7.63943 5.0122 8.35204 5.24783C8.68897 5.3593 9.02781 5.51998 9.30917 5.73338C10.1761 6.39042 10.977 7.12589 11.6855 7.95378C12.2498 8.61303 12.8338 9.24371 13.6061 9.66702C13.6306 9.68036 13.6556 9.69306 13.6782 9.70926C13.9983 9.93822 14.0158 10.0592 13.7766 10.3815C13.5356 10.7064 13.5305 10.7378 13.8424 10.9443C14.9989 11.7102 16.2158 12.2894 17.6595 12.1885C18.0475 12.1612 18.4391 12.1843 18.8287 12.1843C18.8297 12.1586 18.8322 12.1313 18.8348 12.1037Z"/>
</mask>
<path d="M18.8348 12.1037C19.911 12.2247 20.9885 12.3364 22.0634 12.4708C22.5804 12.5352 22.6341 12.5308 22.7446 12.016C22.9732 10.9497 23.3171 9.93441 23.8017 8.9487C25.2679 5.96584 27.643 4.02205 30.6706 2.80324C31.9932 2.27069 33.3594 1.89057 34.7944 1.82293C36.3699 1.74862 37.843 2.09984 39.1492 2.99696C39.5541 3.27514 39.8811 3.67178 40.2187 4.03761C40.2851 4.10969 40.2711 4.30404 40.2254 4.41328C40.1962 4.48283 40.031 4.54729 39.9428 4.53046C39.616 4.46885 39.2981 4.36342 38.9729 4.29166C38.5134 4.19035 38.051 4.10207 37.5884 4.01601C37.5458 4.00807 37.4928 4.05507 37.4448 4.07635C37.4737 4.11985 37.4925 4.18527 37.5328 4.20369C38.1666 4.49108 38.7976 4.78515 39.4401 5.0519C40.4439 5.46886 41.2651 6.11446 41.9085 6.98331C42.5226 7.81278 42.7891 8.7715 42.8951 9.78261C42.9037 9.86359 42.9123 9.98141 42.8669 10.0233C42.778 10.1049 42.6052 10.2218 42.5474 10.1878C42.3124 10.049 42.0917 9.87598 41.8961 9.68417C41.5191 9.31453 41.1759 8.91027 40.7957 8.54381C39.4515 7.24847 37.8068 6.64828 35.9745 6.50442C35.5887 6.47426 35.2 6.47045 34.8129 6.47648C34.7249 6.47807 34.6382 6.57143 34.5512 6.62224C34.6039 6.68417 34.6446 6.76832 34.7113 6.8042C35.0539 6.98871 35.4035 7.16019 35.75 7.33771C36.5179 7.73085 37.3022 8.09604 38.045 8.53174C38.394 8.73625 38.6903 9.05413 38.9586 9.36534C39.1555 9.59398 39.0368 9.84327 38.7468 9.93981C38.6678 9.96616 38.5865 9.98776 38.5048 10.0043C38.3153 10.0427 38.1247 10.0764 37.9345 10.1122C38.0161 10.2736 38.1025 10.4327 38.1781 10.5965C38.2873 10.8328 38.219 11.0487 38.0301 11.1951C37.8351 11.3466 37.6147 11.4752 37.388 11.5737C36.4842 11.9649 35.5232 12.1183 34.5518 12.2196C34.3861 12.2367 34.2181 12.2393 34.0549 12.2694C33.8551 12.3063 33.7976 12.4676 33.9164 12.6477C33.9926 12.7636 34.0901 12.8652 34.1717 12.9779C35.1844 14.3765 35.2555 15.9144 34.838 17.5225C34.8176 17.601 34.7684 17.6737 34.724 17.7432C34.6249 17.8979 34.4086 17.9239 34.3 17.7763C34.1523 17.5756 34.0196 17.3615 33.9002 17.1427C33.3804 16.1907 32.6093 15.4771 31.744 14.8525C31.702 14.8223 31.6417 14.8172 31.5899 14.8004C31.5823 14.8715 31.5455 14.957 31.5718 15.0119C31.7754 15.4387 31.997 15.8569 32.2022 16.2828C32.5674 17.0414 32.5493 17.848 32.4845 18.6591C32.4823 18.6867 32.481 18.7185 32.4667 18.7401C32.4229 18.8074 32.3721 18.9255 32.326 18.9246C32.2311 18.9224 32.1006 18.8827 32.0498 18.8115C31.7576 18.405 31.4934 17.9782 31.2009 17.5721C31.0726 17.3942 30.9011 17.2472 30.7465 17.0891C30.7306 17.0729 30.6811 17.0634 30.6703 17.0738C30.6369 17.1065 30.589 17.1532 30.5928 17.1897C30.6261 17.4924 30.6836 17.7928 30.7058 18.0961C30.7198 18.2885 30.7058 18.4883 30.669 18.6778C30.602 19.0224 30.3359 19.131 30.0494 18.9309C29.7989 18.7556 29.5683 18.5521 29.3232 18.3685C29.145 18.2352 28.9627 18.1059 28.7722 17.9919C28.7103 17.9547 28.5969 17.9386 28.5429 17.9713C28.4928 18.0017 28.4543 18.1212 28.4724 18.1831C28.589 18.5803 28.5128 18.9601 28.3737 19.3285C28.1822 19.8363 27.8659 19.9509 27.394 19.7067C27.32 19.6683 27.2552 19.6115 27.1803 19.5765C26.9824 19.4844 26.7744 19.3168 26.5829 19.3323C26.3067 19.3549 26.401 19.6937 26.3006 19.8801C26.1161 20.2228 25.9602 20.581 25.7878 20.9303C25.6623 21.1843 25.6544 21.4092 25.9145 21.5883C25.9831 21.6353 26.0482 21.6902 26.1053 21.7502C26.4734 22.1361 26.4254 22.2952 25.8779 22.4438C25.7366 22.4819 25.6115 22.4997 25.576 22.6677C25.5112 22.9725 25.2746 23.044 25.012 23.0634C24.762 23.0818 24.5086 23.0659 24.2616 23.0999C23.9348 23.1447 23.6137 23.1875 23.3641 23.4743C23.2314 23.6267 22.9954 23.7045 22.7922 23.7753C22.5569 23.8569 22.3089 23.9128 22.0618 23.9452C21.6194 24.0037 21.3581 24.1834 21.3451 24.6826C21.3356 25.0557 21.0059 25.2275 20.7217 25.4124C20.186 25.7604 19.6341 26.0904 19.1333 26.4841C18.0326 27.3501 17.2266 28.427 16.9145 29.8252C16.7512 30.5572 16.5801 31.2873 16.4079 32.017C16.3409 32.3009 16.3879 32.5524 16.5137 32.8208C16.6277 33.0637 16.6801 33.3451 16.7109 33.615C16.7385 33.8579 16.6588 34.0666 16.3343 34.0069C16.1739 33.9773 16.0678 34.0402 16.0259 34.2022C15.998 34.3098 15.964 34.4162 15.9402 34.5248C15.728 35.4892 15.8074 35.4102 16.42 35.8316C16.6934 36.0199 16.9465 36.2412 17.1879 36.4699C17.2473 36.5261 17.2682 36.695 17.2269 36.7655C17.185 36.8373 17.0421 36.889 16.9481 36.8821C16.8144 36.8722 16.668 36.8268 16.5566 36.7522C15.9472 36.3454 15.287 36.4187 14.6213 36.5242C14.3467 36.5677 14.0742 36.6312 13.7982 36.6572C13.5493 36.6807 13.3273 36.6601 13.146 36.4041C12.9214 36.0875 12.5537 36.1812 12.2206 36.2136C11.7509 36.2596 11.2803 36.3 10.8093 36.3254C10.6455 36.3343 10.4756 36.3073 10.3146 36.2695C10.1005 36.2193 10.0275 35.9405 10.2002 35.816C10.3546 35.7049 10.5324 35.6159 10.7125 35.5521C11.4537 35.2892 12.2193 35.1628 13.0075 35.1863C13.1745 35.1914 13.3412 35.1996 13.5083 35.2018C13.7579 35.205 13.9437 35.0996 14.0189 34.8551C14.4432 33.4759 15.0551 32.1577 15.2323 30.6979C15.4422 28.9687 14.8074 27.6696 13.4394 26.6524C12.2231 25.748 10.8954 25.0532 9.5067 24.4664C8.47526 24.0307 7.50002 23.5092 6.62895 22.7947C4.64609 21.1678 3.82932 19.0433 3.92776 16.527C3.98016 15.1878 4.23135 13.8785 4.52859 12.5733C4.73215 11.6804 4.86108 10.7702 5.01383 9.86613C5.03034 9.76896 4.9843 9.66099 4.96715 9.5581C4.90745 9.63082 4.81789 9.69465 4.79344 9.77785C4.73056 9.98998 4.71214 10.2155 4.64768 10.4269C4.527 10.8245 4.42793 11.237 4.24438 11.6057C3.94333 12.2107 3.43428 12.4384 2.79408 12.3368C2.21421 12.2447 1.72452 11.7813 1.63656 11.1723C1.55304 10.5921 1.54764 10.0074 1.75818 9.44028C1.87441 9.12748 1.99762 8.81183 2.06082 8.48633C2.15037 8.02491 1.89315 7.80325 1.43078 7.91218C1.21452 7.96299 1.00842 8.05635 0.792162 8.10589C0.632429 8.14273 0.462213 8.16083 0.298986 8.15035C0.0363623 8.1332 -0.092884 7.87312 0.0760589 7.66892C0.305021 7.39233 0.574321 7.14876 0.829958 6.89439C1.08432 6.64129 1.08146 6.63272 0.90458 6.33834C0.747705 6.07762 0.57495 5.81913 0.469202 5.53745C0.369488 5.27165 0.373617 4.98013 0.656882 4.79023C0.845197 4.66415 0.880444 4.513 0.833127 4.29038C0.752466 3.91026 0.690547 3.52252 0.665459 3.1351C0.625764 2.51807 0.783908 2.30562 1.41395 2.15605C1.64259 2.10175 1.74739 1.99854 1.80043 1.79086C1.86902 1.52252 1.92237 1.24529 2.03034 0.992507C2.16975 0.666371 2.34854 0.562529 2.69658 0.696857C3.04495 0.831503 3.21294 0.725755 3.35616 0.436457C3.39236 0.3631 3.44952 0.297047 3.50827 0.238933C3.87918 -0.126263 4.25263 -0.0703715 4.51399 0.389775C4.55495 0.461544 4.57306 0.546015 4.60926 0.620642C4.68929 0.785774 4.81409 0.780694 4.95127 0.69908C5.04686 0.642237 5.13768 0.577136 5.23295 0.519022C5.55146 0.324674 5.85727 0.260209 6.10338 0.627628C6.21993 0.801969 6.36886 0.788633 6.54066 0.73433C7.695 0.369451 8.54638 1.77371 8.30948 2.72036C8.04432 3.7807 7.33584 4.37549 6.15768 4.47552C5.99763 4.48918 5.84076 4.54126 5.6823 4.57556C5.75026 4.82389 5.98843 4.81404 6.15007 4.81468C6.91476 4.81786 7.63943 5.0122 8.35204 5.24783C8.68897 5.3593 9.02781 5.51998 9.30917 5.73338C10.1761 6.39042 10.977 7.12589 11.6855 7.95378C12.2498 8.61303 12.8338 9.24371 13.6061 9.66702C13.6306 9.68036 13.6556 9.69306 13.6782 9.70926C13.9983 9.93822 14.0158 10.0592 13.7766 10.3815C13.5356 10.7064 13.5305 10.7378 13.8424 10.9443C14.9989 11.7102 16.2158 12.2894 17.6595 12.1885C18.0475 12.1612 18.4391 12.1843 18.8287 12.1843C18.8297 12.1586 18.8322 12.1313 18.8348 12.1037Z" stroke="white" stroke-width="4" mask="url(#path-2-inside-1_1908_1501)"/>
</svg>
