<svg width="36" height="36" viewBox="0 0 36 36" fill="none" xmlns="http://www.w3.org/2000/svg">
<path fill-rule="evenodd" clip-rule="evenodd" d="M25.3543 4.5957C25.6616 4.5957 26.9293 5.59145 28.1587 6.81698C29.3496 8.00421 30.3484 9.26804 30.3484 9.57442C30.3484 9.88081 25.8153 14.668 20.245 20.2212C14.713 25.7361 9.91104 30.2553 9.60372 30.2553C9.29639 30.2553 8.02866 29.2595 6.79935 28.034C5.60845 26.8468 4.57122 25.5829 4.49438 25.2765C4.45597 24.9702 8.98906 20.1829 14.5978 14.668C20.2065 9.11485 25.047 4.5957 25.3543 4.5957V4.5957ZM5.80053 25.0851L9.68055 29.2978L29.388 9.57442C26.4299 6.58719 25.4695 5.74464 25.3543 5.74464C25.239 5.74464 20.8212 10.1106 15.4814 15.3957L5.80053 25.0851Z" fill="white"/>
<path d="M6.72266 25.2763L11.1405 20.8721L15.5583 16.4678H21.7049L9.79594 28.3402L6.72266 25.2763Z" fill="white"/>
<path d="M22.8574 14.9359C22.7421 14.9359 22.5501 14.7444 22.4348 14.5529C22.3196 14.3232 22.3196 14.17 22.4348 14.17C22.5501 14.17 22.7421 14.3232 22.8574 14.5529C22.9726 14.7444 22.9726 14.9359 22.8574 14.9359Z" fill="white"/>
<path d="M21.897 15.8934C21.7817 16.0083 21.2823 15.6636 20.7445 15.1274C20.2067 14.5912 19.9378 14.1317 20.1683 14.1317C20.3603 14.1317 20.8982 14.5146 21.3207 14.9359C21.7433 15.3572 22.0122 15.7785 21.897 15.8934Z" fill="white"/>
<path d="M25.1624 12.638C25.0471 12.638 24.855 12.4466 24.7398 12.2551C24.6245 12.0253 24.6245 11.8721 24.7398 11.8721C24.855 11.8721 25.0471 12.0253 25.1624 12.2551C25.2776 12.4466 25.2776 12.638 25.1624 12.638Z" fill="white"/>
<path d="M23.0495 13.2125C22.5885 12.7912 22.2427 12.2551 22.2427 12.0636C22.2427 11.8338 22.7037 12.1019 23.2416 12.638C23.741 13.1742 24.1251 13.6721 24.0099 13.787C23.8946 13.9019 23.472 13.6338 23.0495 13.2125Z" fill="white"/>
<path d="M26.1228 11.2976C26.0075 11.4125 25.5849 11.1444 25.1624 10.7232C24.7398 10.3019 24.5477 9.9189 24.7782 9.9189C24.9703 9.9189 25.4313 10.187 25.7386 10.5317C26.0459 10.838 26.238 11.221 26.1228 11.2976Z" fill="white"/>
<path d="M27.0832 10.3402C26.9679 10.3402 26.7758 10.1487 26.6606 9.9572C26.5453 9.72741 26.5453 9.57422 26.6606 9.57422C26.7758 9.57422 26.9679 9.72741 27.0832 9.9572C27.1984 10.1487 27.1984 10.3402 27.0832 10.3402Z" fill="white"/>
<path d="M28.8121 6.31914C28.3896 6.08936 28.9658 5.3234 31.3092 3.02553C32.9995 1.34042 34.3825 0 34.4209 0C34.4593 0 34.3056 0.459574 34.152 1.03404C33.9599 1.64681 32.8074 3.10213 31.6165 4.36595C30.0415 5.93617 29.1963 6.51063 28.8121 6.31914Z" fill="white"/>
<path d="M33.0758 7.27619C32.538 6.39534 32.6148 6.20385 33.6136 4.51875L34.7277 2.71875L35.3808 3.82939C35.8034 4.51875 36.0338 5.55279 35.9954 6.58683C35.9186 8.15704 35.8418 8.23364 34.7661 8.23364C33.9594 8.23364 33.46 7.96555 33.0758 7.27619Z" fill="white"/>
<path d="M3.1117 30.447L4.34101 29.2215C5.53191 27.9576 5.53191 27.9576 7.10697 29.4895L4.64834 31.9789L5.60874 33.0512C6.33865 33.8555 6.45389 34.2385 6.14657 34.8512C5.91607 35.2725 5.45508 35.6172 5.07092 35.6172C4.72517 35.6172 3.41903 34.6215 2.18971 33.3959C0.422576 31.6342 0 30.9832 0 29.9874C0 29.03 0.153664 28.7236 0.653073 28.7236C1.03723 28.7236 1.72872 29.1066 3.1117 30.447Z" fill="white"/>
</svg>
