<svg width="29" height="36" viewBox="0 0 29 36" fill="none" xmlns="http://www.w3.org/2000/svg">
<path fill-rule="evenodd" clip-rule="evenodd" d="M24.0934 1.15454V2.70005C24.0934 4.02918 24.1862 4.24555 24.7122 4.24555C25.3 4.24555 25.331 4.46193 25.331 7.80022C25.331 11.1076 25.3 11.3549 24.7122 11.5094C24.1553 11.664 24.0934 11.9113 24.0934 14.2913C24.0934 16.7023 24.1553 16.9187 24.7122 16.9187C25.3 16.9187 25.331 17.1351 25.331 20.4734C25.331 23.8117 25.3 24.028 24.7122 24.028C24.1553 24.028 24.0934 24.2444 24.0934 27.7373L1.04308 27.5827L1.01214 14.755C0.981198 7.70749 1.01214 1.74183 1.07402 1.55637C1.16684 1.24727 3.73486 1.15454 24.0934 1.15454V1.15454ZM1.81658 26.8099H8.31398V2.08184H1.81658V26.8099ZM9.55158 26.8099H16.049V2.08184H9.55158V26.8099ZM17.2866 26.8099H23.1652V2.08184H17.2866V26.8099Z" fill="white" stroke="white" stroke-width="0.915856"/>
<g filter="url(#filter0_d_1877_1521)">
<path d="M18.3696 1.06182C15.3066 1.12364 10.1396 1.12364 6.92184 1.06182C3.70408 1.03091 6.17928 1 12.491 1C18.8028 1 21.4327 1.03091 18.3696 1.06182Z" fill="white"/>
<path d="M18.3696 1.06182C15.3066 1.12364 10.1396 1.12364 6.92184 1.06182C3.70408 1.03091 6.17928 1 12.491 1C18.8028 1 21.4327 1.03091 18.3696 1.06182Z" stroke="white" stroke-width="0.915856"/>
</g>
<path d="M18.3696 27.9537C15.3066 28.0155 10.1396 28.0155 6.92184 27.9537C3.70408 27.9228 6.17928 27.8918 12.491 27.8918C18.8028 27.8918 21.4327 27.9228 18.3696 27.9537Z" fill="white" fill-opacity="0.7" stroke="white" stroke-width="0.915856"/>
<path d="M25.5479 9.34578C25.486 10.3658 25.4551 9.65488 25.4551 7.80028C25.4551 5.91476 25.486 5.08018 25.5479 5.94567C25.6098 6.78024 25.6098 8.32575 25.5479 9.34578Z" fill="white" fill-opacity="0.8"/>
<path d="M25.5479 22.0189C25.486 23.039 25.4551 22.328 25.4551 20.4734C25.4551 18.6188 25.486 17.7533 25.5479 18.6188C25.6098 19.4534 25.6098 20.9989 25.5479 22.0189Z" fill="white" fill-opacity="0.8"/>
<path d="M25.5479 9.34578C25.486 10.3658 25.4551 9.65488 25.4551 7.80028C25.4551 5.91476 25.486 5.08018 25.5479 5.94567C25.6098 6.78024 25.6098 8.32575 25.5479 9.34578Z" stroke="white" stroke-width="0.915856"/>
<path d="M25.5479 22.0189C25.486 23.039 25.4551 22.328 25.4551 20.4734C25.4551 18.6188 25.486 17.7533 25.5479 18.6188C25.6098 19.4534 25.6098 20.9989 25.5479 22.0189Z" stroke="white" stroke-width="0.915856"/>
<g filter="url(#filter1_d_1877_1521)">
<path d="M24.3103 3.31827C24.2484 3.75101 24.1865 3.47282 24.1865 2.70007C24.1865 1.92731 24.2484 1.5873 24.3103 1.92731C24.3722 2.26732 24.3722 2.88553 24.3103 3.31827Z" fill="white"/>
<path d="M24.3103 15.3732C24.2484 16.146 24.1865 15.5896 24.1865 14.1368C24.1865 12.684 24.2484 12.0658 24.3103 12.7459C24.3722 13.4259 24.3722 14.6005 24.3103 15.3732Z" fill="white"/>
<path d="M24.3103 26.6554C24.2484 27.1809 24.1865 26.9027 24.1865 26.0372C24.1865 25.2026 24.2484 24.7699 24.3103 25.1099C24.3722 25.4499 24.3722 26.1299 24.3103 26.6554Z" fill="white"/>
<path d="M24.3103 3.31827C24.2484 3.75101 24.1865 3.47282 24.1865 2.70007C24.1865 1.92731 24.2484 1.5873 24.3103 1.92731C24.3722 2.26732 24.3722 2.88553 24.3103 3.31827Z" stroke="white" stroke-width="0.915856"/>
<path d="M24.3103 15.3732C24.2484 16.146 24.1865 15.5896 24.1865 14.1368C24.1865 12.684 24.2484 12.0658 24.3103 12.7459C24.3722 13.4259 24.3722 14.6005 24.3103 15.3732Z" stroke="white" stroke-width="0.915856"/>
<path d="M24.3103 26.6554C24.2484 27.1809 24.1865 26.9027 24.1865 26.0372C24.1865 25.2026 24.2484 24.7699 24.3103 25.1099C24.3722 25.4499 24.3722 26.1299 24.3103 26.6554Z" stroke="white" stroke-width="0.915856"/>
</g>
<path d="M25.3004 11.5403C25.2385 11.633 24.9601 11.633 24.7125 11.5712C24.3722 11.4475 24.4031 11.3857 24.8363 11.3857C25.1766 11.3548 25.3623 11.4475 25.3004 11.5403Z" fill="white" stroke="white" stroke-width="0.915856"/>
<path d="M25.3004 24.2135C25.2385 24.3062 24.9601 24.3062 24.7125 24.2444C24.3722 24.1207 24.4031 24.0589 24.8363 24.0589C25.1766 24.028 25.3623 24.1207 25.3004 24.2135Z" fill="white" fill-opacity="0.9" stroke="white" stroke-width="0.915856"/>
<path d="M25.3004 16.795C25.2385 16.8877 24.9601 16.8877 24.7125 16.8259C24.3722 16.7023 24.4031 16.6405 24.8363 16.6405C25.1766 16.6096 25.3623 16.7023 25.3004 16.795Z" fill="white" fill-opacity="0.1" stroke="white" stroke-width="0.915856"/>
<path d="M25.3004 4.1218C25.2385 4.21453 24.9601 4.21453 24.7125 4.15271C24.3722 4.02907 24.4031 3.96724 24.8363 3.96724C25.1766 3.93633 25.3623 4.02906 25.3004 4.1218Z" fill="white" fill-opacity="0.2" stroke="white" stroke-width="0.915856"/>
<path d="M16.266 20.6279C16.235 24.1208 16.2041 21.3389 16.2041 14.4459C16.2041 7.55295 16.235 4.70922 16.266 8.10933C16.3279 11.5094 16.3279 17.1351 16.266 20.6279Z" fill="white" fill-opacity="0.2" stroke="white" stroke-width="0.915856"/>
<path d="M1.72399 21.0916C1.69305 24.4917 1.66211 21.5862 1.66211 14.6005C1.66211 7.61482 1.69305 4.8329 1.72399 8.41848C1.78587 12.0041 1.78587 17.6915 1.72399 21.0916Z" fill="white" fill-opacity="0.8" stroke="white" stroke-width="0.915856"/>
<path d="M23.3822 20.6279C23.3513 24.1208 23.3203 21.3389 23.3203 14.4459C23.3203 7.55295 23.3513 4.70922 23.3822 8.10933C23.4441 11.5094 23.4441 17.1351 23.3822 20.6279Z" fill="white" fill-opacity="0.1" stroke="white" stroke-width="0.915856"/>
<path d="M9.45836 20.6279C9.42742 24.1208 9.39648 21.3389 9.39648 14.4459C9.39648 7.55295 9.42742 4.70922 9.45836 8.10933C9.52024 11.5094 9.52024 17.1351 9.45836 20.6279Z" fill="white" fill-opacity="0.2" stroke="white" stroke-width="0.915856"/>
<path d="M17.1937 20.6279C17.1628 24.1208 17.1318 21.3389 17.1318 14.4459C17.1318 7.55295 17.1628 4.70922 17.1937 8.10933C17.2556 11.5094 17.2556 17.1351 17.1937 20.6279Z" fill="white" fill-opacity="0.5" stroke="white" stroke-width="0.915856"/>
<path d="M8.53063 20.6279C8.49969 24.1208 8.46875 21.3389 8.46875 14.4459C8.46875 7.55295 8.49969 4.70922 8.53063 8.10933C8.59251 11.5094 8.59251 17.1351 8.53063 20.6279Z" fill="white" fill-opacity="0.6" stroke="white" stroke-width="0.915856"/>
<path d="M6.92211 1.98921C6.08673 2.05104 4.53973 2.05104 3.51871 1.98921C2.49769 1.92739 3.17837 1.89648 5.06571 1.89648C6.95305 1.89648 7.78843 1.92739 6.92211 1.98921Z" fill="white" fill-opacity="0.1"/>
<path d="M14.6571 1.98921C13.8217 2.05104 12.2747 2.05104 11.2537 1.98921C10.2327 1.92739 10.9443 1.89648 12.8007 1.89648C14.6571 1.89648 15.5234 1.92739 14.6571 1.98921Z" fill="white" fill-opacity="0.1"/>
<path d="M21.928 1.98921C21.1545 2.05104 19.7622 2.05104 18.834 1.98921C17.9058 1.92739 18.5246 1.89648 20.2263 1.89648C21.928 1.89648 22.7015 1.92739 21.928 1.98921Z" fill="white" fill-opacity="0.1"/>
<path d="M6.92211 1.98921C6.08673 2.05104 4.53973 2.05104 3.51871 1.98921C2.49769 1.92739 3.17837 1.89648 5.06571 1.89648C6.95305 1.89648 7.78843 1.92739 6.92211 1.98921Z" stroke="white" stroke-width="0.915856"/>
<path d="M14.6571 1.98921C13.8217 2.05104 12.2747 2.05104 11.2537 1.98921C10.2327 1.92739 10.9443 1.89648 12.8007 1.89648C14.6571 1.89648 15.5234 1.92739 14.6571 1.98921Z" stroke="white" stroke-width="0.915856"/>
<path d="M21.928 1.98921C21.1545 2.05104 19.7622 2.05104 18.834 1.98921C17.9058 1.92739 18.5246 1.89648 20.2263 1.89648C21.928 1.89648 22.7015 1.92739 21.928 1.98921Z" stroke="white" stroke-width="0.915856"/>
<path d="M6.92211 27.0264C6.08673 27.0883 4.53973 27.0883 3.51871 27.0264C2.49769 26.9646 3.17837 26.9337 5.06571 26.9337C6.95305 26.9337 7.78843 26.9646 6.92211 27.0264Z" fill="white" fill-opacity="0.1"/>
<path d="M14.6571 27.0264C13.8217 27.0883 12.2747 27.0883 11.2537 27.0264C10.2327 26.9646 10.9443 26.9337 12.8007 26.9337C14.6571 26.9337 15.5234 26.9646 14.6571 27.0264Z" fill="white" fill-opacity="0.1"/>
<path d="M21.928 27.0264C21.1545 27.0883 19.7622 27.0883 18.834 27.0264C17.9058 26.9646 18.5246 26.9337 20.2263 26.9337C21.928 26.9337 22.7015 26.9646 21.928 27.0264Z" fill="white" fill-opacity="0.1"/>
<path d="M6.92211 27.0264C6.08673 27.0883 4.53973 27.0883 3.51871 27.0264C2.49769 26.9646 3.17837 26.9337 5.06571 26.9337C6.95305 26.9337 7.78843 26.9646 6.92211 27.0264Z" stroke="white" stroke-width="0.915856"/>
<path d="M14.6571 27.0264C13.8217 27.0883 12.2747 27.0883 11.2537 27.0264C10.2327 26.9646 10.9443 26.9337 12.8007 26.9337C14.6571 26.9337 15.5234 26.9646 14.6571 27.0264Z" stroke="white" stroke-width="0.915856"/>
<path d="M21.928 27.0264C21.1545 27.0883 19.7622 27.0883 18.834 27.0264C17.9058 26.9646 18.5246 26.9337 20.2263 26.9337C21.928 26.9337 22.7015 26.9646 21.928 27.0264Z" stroke="white" stroke-width="0.915856"/>
<defs>
<filter id="filter0_d_1877_1521" x="1.05469" y="0.542114" width="23.0508" height="9.02405" filterUnits="userSpaceOnUse" color-interpolation-filters="sRGB">
<feFlood flood-opacity="0" result="BackgroundImageFix"/>
<feColorMatrix in="SourceAlpha" type="matrix" values="0 0 0 0 0 0 0 0 0 0 0 0 0 0 0 0 0 0 127 0" result="hardAlpha"/>
<feOffset dy="4"/>
<feGaussianBlur stdDeviation="2"/>
<feComposite in2="hardAlpha" operator="out"/>
<feColorMatrix type="matrix" values="0 0 0 0 0 0 0 0 0 0 0 0 0 0 0 0 0 0 0.25 0"/>
<feBlend mode="normal" in2="BackgroundImageFix" result="effect1_dropShadow_1877_1521"/>
<feBlend mode="normal" in="SourceGraphic" in2="effect1_dropShadow_1877_1521" result="shape"/>
</filter>
<filter id="filter1_d_1877_1521" x="19.7285" y="1.33704" width="9.08594" height="34.0421" filterUnits="userSpaceOnUse" color-interpolation-filters="sRGB">
<feFlood flood-opacity="0" result="BackgroundImageFix"/>
<feColorMatrix in="SourceAlpha" type="matrix" values="0 0 0 0 0 0 0 0 0 0 0 0 0 0 0 0 0 0 127 0" result="hardAlpha"/>
<feOffset dy="4"/>
<feGaussianBlur stdDeviation="2"/>
<feComposite in2="hardAlpha" operator="out"/>
<feColorMatrix type="matrix" values="0 0 0 0 0 0 0 0 0 0 0 0 0 0 0 0 0 0 0.25 0"/>
<feBlend mode="normal" in2="BackgroundImageFix" result="effect1_dropShadow_1877_1521"/>
<feBlend mode="normal" in="SourceGraphic" in2="effect1_dropShadow_1877_1521" result="shape"/>
</filter>
</defs>
</svg>
