<svg width="32" height="32" viewBox="0 0 32 32" fill="none" xmlns="http://www.w3.org/2000/svg">
<mask id="mask0_1874_1458" style="mask-type:luminance" maskUnits="userSpaceOnUse" x="0" y="0" width="32" height="32">
<rect width="32" height="32" fill="white"/>
</mask>
<g mask="url(#mask0_1874_1458)">
<path d="M13.6702 7.8458L14.0414 13.3657L14.2257 16.1401C14.2277 16.4255 14.2723 16.7089 14.3586 16.9813C14.5811 17.5101 15.1166 17.8461 15.6991 17.8227L24.5754 17.242C24.9598 17.2357 25.331 17.3795 25.6073 17.6417C25.8375 17.8603 25.9862 18.1461 26.0331 18.4536L26.0489 18.6403C25.6815 23.7265 21.9459 27.9689 16.8702 29.064C11.7944 30.1591 6.58947 27.8457 4.08127 23.3799C3.35818 22.0824 2.90652 20.6564 2.75283 19.1853C2.68863 18.7499 2.66036 18.31 2.6683 17.87C2.66036 12.417 6.54362 7.70263 11.9794 6.56611C12.6337 6.46423 13.275 6.81057 13.5374 7.40739C13.6053 7.5456 13.6501 7.69363 13.6702 7.8458Z" fill="white"/>
<path opacity="0.4" d="M29.3337 13.083L29.3244 13.1264L29.2975 13.1896L29.3012 13.3631C29.2873 13.5929 29.1985 13.8139 29.0457 13.9926C28.8864 14.1786 28.6688 14.3053 28.4292 14.3545L28.2831 14.3745L18.042 15.0381C17.7013 15.0717 17.3621 14.9618 17.1089 14.7359C16.8977 14.5475 16.7628 14.2934 16.7247 14.0195L16.0373 3.79335C16.0253 3.75877 16.0253 3.72129 16.0373 3.68671C16.0467 3.40483 16.1708 3.13839 16.3819 2.94691C16.5928 2.75543 16.8733 2.65487 17.1604 2.66769C23.2403 2.82237 28.3501 7.19432 29.3337 13.083Z" fill="white"/>
</g>
</svg>
