<svg width="29" height="36" viewBox="0 0 29 36" fill="none" xmlns="http://www.w3.org/2000/svg">
<path fill-rule="evenodd" clip-rule="evenodd" d="M24.0934 1.15455V2.70006C24.0934 4.02919 24.1862 4.24556 24.7122 4.24556C25.3 4.24556 25.331 4.46193 25.331 7.80023C25.331 11.1076 25.3 11.3549 24.7122 11.5094C24.1553 11.664 24.0934 11.9113 24.0934 14.2914C24.0934 16.7023 24.1553 16.9187 24.7122 16.9187C25.3 16.9187 25.331 17.1351 25.331 20.4734C25.331 23.8117 25.3 24.028 24.7122 24.028C24.1553 24.028 24.0934 24.2444 24.0934 27.7373L1.04308 27.5827L1.01214 14.755C0.981198 7.7075 1.01214 1.74184 1.07402 1.55638C1.16684 1.24728 3.73486 1.15455 24.0934 1.15455V1.15455ZM1.81658 26.81H8.31398V2.08185H1.81658V26.81ZM9.55158 26.81H16.049V2.08185H9.55158V26.81ZM17.2866 26.81H23.1652V2.08185H17.2866V26.81Z" fill="#AE7B3D" stroke="#AE7B3D" stroke-width="0.915856"/>
<g filter="url(#filter0_d_1874_1751)">
<path d="M18.3696 1.06182C15.3066 1.12364 10.1396 1.12364 6.92184 1.06182C3.70408 1.03091 6.17928 1 12.491 1C18.8028 1 21.4327 1.03091 18.3696 1.06182Z" fill="#AE7B3D"/>
<path d="M18.3696 1.06182C15.3066 1.12364 10.1396 1.12364 6.92184 1.06182C3.70408 1.03091 6.17928 1 12.491 1C18.8028 1 21.4327 1.03091 18.3696 1.06182Z" stroke="#AE7B3D" stroke-width="0.915856"/>
</g>
<path d="M18.3696 27.9536C15.3066 28.0155 10.1396 28.0155 6.92184 27.9536C3.70408 27.9227 6.17928 27.8918 12.491 27.8918C18.8028 27.8918 21.4327 27.9227 18.3696 27.9536Z" fill="#AE7B3D" fill-opacity="0.7" stroke="#AE7B3D" stroke-width="0.915856"/>
<path d="M25.5479 9.34577C25.486 10.3658 25.4551 9.65487 25.4551 7.80026C25.4551 5.91474 25.486 5.08017 25.5479 5.94565C25.6098 6.78023 25.6098 8.32573 25.5479 9.34577Z" fill="#AE7B3D" fill-opacity="0.8"/>
<path d="M25.5479 22.0189C25.486 23.039 25.4551 22.328 25.4551 20.4734C25.4551 18.6188 25.486 17.7533 25.5479 18.6188C25.6098 19.4534 25.6098 20.9989 25.5479 22.0189Z" fill="#AE7B3D" fill-opacity="0.8"/>
<path d="M25.5479 9.34577C25.486 10.3658 25.4551 9.65487 25.4551 7.80026C25.4551 5.91474 25.486 5.08017 25.5479 5.94565C25.6098 6.78023 25.6098 8.32573 25.5479 9.34577Z" stroke="#AE7B3D" stroke-width="0.915856"/>
<path d="M25.5479 22.0189C25.486 23.039 25.4551 22.328 25.4551 20.4734C25.4551 18.6188 25.486 17.7533 25.5479 18.6188C25.6098 19.4534 25.6098 20.9989 25.5479 22.0189Z" stroke="#AE7B3D" stroke-width="0.915856"/>
<g filter="url(#filter1_d_1874_1751)">
<path d="M24.3103 3.31831C24.2484 3.75105 24.1865 3.47286 24.1865 2.7001C24.1865 1.92735 24.2484 1.58734 24.3103 1.92735C24.3722 2.26736 24.3722 2.88556 24.3103 3.31831Z" fill="#AE7B3D"/>
<path d="M24.3103 15.3733C24.2484 16.146 24.1865 15.5896 24.1865 14.1369C24.1865 12.6841 24.2484 12.0659 24.3103 12.7459C24.3722 13.4259 24.3722 14.6005 24.3103 15.3733Z" fill="#AE7B3D"/>
<path d="M24.3103 26.6555C24.2484 27.1809 24.1865 26.9027 24.1865 26.0373C24.1865 25.2027 24.2484 24.7699 24.3103 25.1099C24.3722 25.45 24.3722 26.13 24.3103 26.6555Z" fill="#AE7B3D"/>
<path d="M24.3103 3.31831C24.2484 3.75105 24.1865 3.47286 24.1865 2.7001C24.1865 1.92735 24.2484 1.58734 24.3103 1.92735C24.3722 2.26736 24.3722 2.88556 24.3103 3.31831Z" stroke="#AE7B3D" stroke-width="0.915856"/>
<path d="M24.3103 15.3733C24.2484 16.146 24.1865 15.5896 24.1865 14.1369C24.1865 12.6841 24.2484 12.0659 24.3103 12.7459C24.3722 13.4259 24.3722 14.6005 24.3103 15.3733Z" stroke="#AE7B3D" stroke-width="0.915856"/>
<path d="M24.3103 26.6555C24.2484 27.1809 24.1865 26.9027 24.1865 26.0373C24.1865 25.2027 24.2484 24.7699 24.3103 25.1099C24.3722 25.45 24.3722 26.13 24.3103 26.6555Z" stroke="#AE7B3D" stroke-width="0.915856"/>
</g>
<path d="M25.3004 11.5403C25.2385 11.633 24.9601 11.633 24.7125 11.5712C24.3722 11.4475 24.4031 11.3857 24.8363 11.3857C25.1766 11.3548 25.3623 11.4475 25.3004 11.5403Z" fill="#AE7B3D" stroke="#AE7B3D" stroke-width="0.915856"/>
<path d="M25.3004 24.2134C25.2385 24.3061 24.9601 24.3061 24.7125 24.2443C24.3722 24.1207 24.4031 24.0589 24.8363 24.0589C25.1766 24.0279 25.3623 24.1207 25.3004 24.2134Z" fill="#AE7B3D" fill-opacity="0.9" stroke="#AE7B3D" stroke-width="0.915856"/>
<path d="M25.3004 16.795C25.2385 16.8877 24.9601 16.8877 24.7125 16.8259C24.3722 16.7023 24.4031 16.6404 24.8363 16.6404C25.1766 16.6095 25.3623 16.7023 25.3004 16.795Z" fill="#AE7B3D" fill-opacity="0.1" stroke="#AE7B3D" stroke-width="0.915856"/>
<path d="M25.3004 4.12183C25.2385 4.21456 24.9601 4.21456 24.7125 4.15274C24.3722 4.0291 24.4031 3.96728 24.8363 3.96728C25.1766 3.93637 25.3623 4.0291 25.3004 4.12183Z" fill="#AE7B3D" fill-opacity="0.2" stroke="#AE7B3D" stroke-width="0.915856"/>
<path d="M16.266 20.6279C16.235 24.1207 16.2041 21.3388 16.2041 14.4459C16.2041 7.5529 16.235 4.70917 16.266 8.10928C16.3279 11.5094 16.3279 17.135 16.266 20.6279Z" fill="#AE7B3D" fill-opacity="0.2" stroke="#AE7B3D" stroke-width="0.915856"/>
<path d="M1.72399 21.0917C1.69305 24.4918 1.66211 21.5862 1.66211 14.6006C1.66211 7.61486 1.69305 4.83295 1.72399 8.41852C1.78587 12.0041 1.78587 17.6916 1.72399 21.0917Z" fill="#AE7B3D" fill-opacity="0.8" stroke="#AE7B3D" stroke-width="0.915856"/>
<path d="M23.3822 20.6279C23.3513 24.1207 23.3203 21.3388 23.3203 14.4459C23.3203 7.5529 23.3513 4.70917 23.3822 8.10928C23.4441 11.5094 23.4441 17.135 23.3822 20.6279Z" fill="#AE7B3D" fill-opacity="0.1" stroke="#AE7B3D" stroke-width="0.915856"/>
<path d="M9.45836 20.6279C9.42742 24.1207 9.39648 21.3388 9.39648 14.4459C9.39648 7.5529 9.42742 4.70917 9.45836 8.10928C9.52024 11.5094 9.52024 17.135 9.45836 20.6279Z" fill="#AE7B3D" fill-opacity="0.2" stroke="#AE7B3D" stroke-width="0.915856"/>
<path d="M17.1937 20.6279C17.1628 24.1207 17.1318 21.3388 17.1318 14.4459C17.1318 7.5529 17.1628 4.70917 17.1937 8.10928C17.2556 11.5094 17.2556 17.135 17.1937 20.6279Z" fill="#AE7B3D" fill-opacity="0.5" stroke="#AE7B3D" stroke-width="0.915856"/>
<path d="M8.53063 20.6279C8.49969 24.1207 8.46875 21.3388 8.46875 14.4459C8.46875 7.5529 8.49969 4.70917 8.53063 8.10928C8.59251 11.5094 8.59251 17.135 8.53063 20.6279Z" fill="#AE7B3D" fill-opacity="0.6" stroke="#AE7B3D" stroke-width="0.915856"/>
<path d="M6.92211 1.98925C6.08673 2.05107 4.53973 2.05107 3.51871 1.98925C2.49769 1.92743 3.17837 1.89651 5.06571 1.89651C6.95305 1.89651 7.78843 1.92743 6.92211 1.98925Z" fill="#AE7B3D" fill-opacity="0.1"/>
<path d="M14.6571 1.98925C13.8217 2.05107 12.2747 2.05107 11.2537 1.98925C10.2327 1.92743 10.9443 1.89651 12.8007 1.89651C14.6571 1.89651 15.5234 1.92743 14.6571 1.98925Z" fill="#AE7B3D" fill-opacity="0.1"/>
<path d="M21.928 1.98925C21.1545 2.05107 19.7622 2.05107 18.834 1.98925C17.9058 1.92743 18.5246 1.89651 20.2263 1.89651C21.928 1.89651 22.7015 1.92743 21.928 1.98925Z" fill="#AE7B3D" fill-opacity="0.1"/>
<path d="M6.92211 1.98925C6.08673 2.05107 4.53973 2.05107 3.51871 1.98925C2.49769 1.92743 3.17837 1.89651 5.06571 1.89651C6.95305 1.89651 7.78843 1.92743 6.92211 1.98925Z" stroke="#AE7B3D" stroke-width="0.915856"/>
<path d="M14.6571 1.98925C13.8217 2.05107 12.2747 2.05107 11.2537 1.98925C10.2327 1.92743 10.9443 1.89651 12.8007 1.89651C14.6571 1.89651 15.5234 1.92743 14.6571 1.98925Z" stroke="#AE7B3D" stroke-width="0.915856"/>
<path d="M21.928 1.98925C21.1545 2.05107 19.7622 2.05107 18.834 1.98925C17.9058 1.92743 18.5246 1.89651 20.2263 1.89651C21.928 1.89651 22.7015 1.92743 21.928 1.98925Z" stroke="#AE7B3D" stroke-width="0.915856"/>
<path d="M6.92211 27.0264C6.08673 27.0883 4.53973 27.0883 3.51871 27.0264C2.49769 26.9646 3.17837 26.9337 5.06571 26.9337C6.95305 26.9337 7.78843 26.9646 6.92211 27.0264Z" fill="#AE7B3D" fill-opacity="0.1"/>
<path d="M14.6571 27.0264C13.8217 27.0883 12.2747 27.0883 11.2537 27.0264C10.2327 26.9646 10.9443 26.9337 12.8007 26.9337C14.6571 26.9337 15.5234 26.9646 14.6571 27.0264Z" fill="#AE7B3D" fill-opacity="0.1"/>
<path d="M21.928 27.0264C21.1545 27.0883 19.7622 27.0883 18.834 27.0264C17.9058 26.9646 18.5246 26.9337 20.2263 26.9337C21.928 26.9337 22.7015 26.9646 21.928 27.0264Z" fill="#AE7B3D" fill-opacity="0.1"/>
<path d="M6.92211 27.0264C6.08673 27.0883 4.53973 27.0883 3.51871 27.0264C2.49769 26.9646 3.17837 26.9337 5.06571 26.9337C6.95305 26.9337 7.78843 26.9646 6.92211 27.0264Z" stroke="#AE7B3D" stroke-width="0.915856"/>
<path d="M14.6571 27.0264C13.8217 27.0883 12.2747 27.0883 11.2537 27.0264C10.2327 26.9646 10.9443 26.9337 12.8007 26.9337C14.6571 26.9337 15.5234 26.9646 14.6571 27.0264Z" stroke="#AE7B3D" stroke-width="0.915856"/>
<path d="M21.928 27.0264C21.1545 27.0883 19.7622 27.0883 18.834 27.0264C17.9058 26.9646 18.5246 26.9337 20.2263 26.9337C21.928 26.9337 22.7015 26.9646 21.928 27.0264Z" stroke="#AE7B3D" stroke-width="0.915856"/>
<defs>
<filter id="filter0_d_1874_1751" x="1.05469" y="0.542068" width="23.0508" height="9.02405" filterUnits="userSpaceOnUse" color-interpolation-filters="sRGB">
<feFlood flood-opacity="0" result="BackgroundImageFix"/>
<feColorMatrix in="SourceAlpha" type="matrix" values="0 0 0 0 0 0 0 0 0 0 0 0 0 0 0 0 0 0 127 0" result="hardAlpha"/>
<feOffset dy="4"/>
<feGaussianBlur stdDeviation="2"/>
<feComposite in2="hardAlpha" operator="out"/>
<feColorMatrix type="matrix" values="0 0 0 0 0 0 0 0 0 0 0 0 0 0 0 0 0 0 0.25 0"/>
<feBlend mode="normal" in2="BackgroundImageFix" result="effect1_dropShadow_1874_1751"/>
<feBlend mode="normal" in="SourceGraphic" in2="effect1_dropShadow_1874_1751" result="shape"/>
</filter>
<filter id="filter1_d_1874_1751" x="19.7285" y="1.33704" width="9.08594" height="34.0421" filterUnits="userSpaceOnUse" color-interpolation-filters="sRGB">
<feFlood flood-opacity="0" result="BackgroundImageFix"/>
<feColorMatrix in="SourceAlpha" type="matrix" values="0 0 0 0 0 0 0 0 0 0 0 0 0 0 0 0 0 0 127 0" result="hardAlpha"/>
<feOffset dy="4"/>
<feGaussianBlur stdDeviation="2"/>
<feComposite in2="hardAlpha" operator="out"/>
<feColorMatrix type="matrix" values="0 0 0 0 0 0 0 0 0 0 0 0 0 0 0 0 0 0 0.25 0"/>
<feBlend mode="normal" in2="BackgroundImageFix" result="effect1_dropShadow_1874_1751"/>
<feBlend mode="normal" in="SourceGraphic" in2="effect1_dropShadow_1874_1751" result="shape"/>
</filter>
</defs>
</svg>
