<svg width="36" height="36" viewBox="0 0 36 36" fill="none" xmlns="http://www.w3.org/2000/svg">
<path fill-rule="evenodd" clip-rule="evenodd" d="M25.3543 4.59576C25.6616 4.59576 26.9293 5.59151 28.1587 6.81704C29.3496 8.00427 30.3484 9.2681 30.3484 9.57448C30.3484 9.88087 25.8153 14.6681 20.245 20.2213C14.713 25.7362 9.91104 30.2553 9.60372 30.2553C9.29639 30.2553 8.02866 29.2596 6.79935 28.034C5.60845 26.8468 4.57122 25.583 4.49438 25.2766C4.45597 24.9702 8.98906 20.183 14.5978 14.6681C20.2065 9.11491 25.047 4.59576 25.3543 4.59576V4.59576ZM5.80053 25.0851L9.68055 29.2979L29.388 9.57448C26.4299 6.58725 25.4695 5.7447 25.3543 5.7447C25.239 5.7447 20.8212 10.1107 15.4814 15.3958L5.80053 25.0851Z" fill="#AE7B3D"/>
<path d="M6.72266 25.2766L11.1405 20.8723L15.5583 16.4681H21.7049L9.79594 28.3404L6.72266 25.2766Z" fill="#AE7B3D"/>
<path d="M22.8574 14.9362C22.7421 14.9362 22.5501 14.7447 22.4348 14.5532C22.3196 14.3234 22.3196 14.1702 22.4348 14.1702C22.5501 14.1702 22.7421 14.3234 22.8574 14.5532C22.9726 14.7447 22.9726 14.9362 22.8574 14.9362Z" fill="#AE7B3D"/>
<path d="M21.897 15.8936C21.7817 16.0085 21.2823 15.6638 20.7445 15.1277C20.2067 14.5915 19.9378 14.1319 20.1683 14.1319C20.3603 14.1319 20.8982 14.5149 21.3207 14.9362C21.7433 15.3574 22.0122 15.7787 21.897 15.8936Z" fill="#AE7B3D"/>
<path d="M25.1624 12.6383C25.0471 12.6383 24.855 12.4468 24.7398 12.2553C24.6245 12.0255 24.6245 11.8723 24.7398 11.8723C24.855 11.8723 25.0471 12.0255 25.1624 12.2553C25.2776 12.4468 25.2776 12.6383 25.1624 12.6383Z" fill="#AE7B3D"/>
<path d="M23.0495 13.2128C22.5885 12.7915 22.2427 12.2553 22.2427 12.0638C22.2427 11.834 22.7037 12.1021 23.2416 12.6383C23.741 13.1745 24.1251 13.6723 24.0099 13.7872C23.8946 13.9021 23.472 13.634 23.0495 13.2128Z" fill="#AE7B3D"/>
<path d="M26.1228 11.2979C26.0075 11.4128 25.5849 11.1447 25.1624 10.7234C24.7398 10.3021 24.5477 9.91914 24.7782 9.91914C24.9703 9.91914 25.4313 10.1872 25.7386 10.5319C26.0459 10.8383 26.238 11.2213 26.1228 11.2979Z" fill="#AE7B3D"/>
<path d="M27.0832 10.3404C26.9679 10.3404 26.7758 10.1489 26.6606 9.95744C26.5453 9.72765 26.5453 9.57446 26.6606 9.57446C26.7758 9.57446 26.9679 9.72765 27.0832 9.95744C27.1984 10.1489 27.1984 10.3404 27.0832 10.3404Z" fill="#AE7B3D"/>
<path d="M28.8121 6.31914C28.3896 6.08936 28.9658 5.3234 31.3092 3.02553C32.9995 1.34042 34.3825 0 34.4209 0C34.4593 0 34.3056 0.459574 34.152 1.03404C33.9599 1.64681 32.8074 3.10213 31.6165 4.36595C30.0415 5.93617 29.1963 6.51063 28.8121 6.31914Z" fill="#AE7B3D"/>
<path d="M33.0758 7.27644C32.538 6.39559 32.6148 6.2041 33.6136 4.51899L34.7277 2.71899L35.3808 3.82963C35.8034 4.51899 36.0338 5.55304 35.9954 6.58708C35.9186 8.15729 35.8418 8.23388 34.7661 8.23388C33.9594 8.23388 33.46 7.9658 33.0758 7.27644Z" fill="#AE7B3D"/>
<path d="M3.1117 30.4468L4.34101 29.2213C5.53191 27.9575 5.53191 27.9575 7.10697 29.4894L4.64834 31.9787L5.60874 33.0511C6.33865 33.8553 6.45389 34.2383 6.14657 34.8511C5.91607 35.2723 5.45508 35.617 5.07092 35.617C4.72517 35.617 3.41903 34.6213 2.18971 33.3957C0.422576 31.634 0 30.983 0 29.9872C0 29.0298 0.153664 28.7234 0.653073 28.7234C1.03723 28.7234 1.72872 29.1064 3.1117 30.4468Z" fill="#AE7B3D"/>
</svg>
