<svg width="28" height="28" viewBox="0 0 28 28" fill="none" xmlns="http://www.w3.org/2000/svg">
<rect width="28" height="28" rx="3" fill="#D97706"/>
<path d="M15.5742 4.574C15.4473 4.44706 15.2715 4.36872 15.077 4.36973L13.0848 4.37755C12.6953 4.37907 12.3788 4.6956 12.3778 5.08457L12.3493 12.349L5.08485 12.3775C4.69538 12.379 4.37885 12.6955 4.37783 13.0845L4.37001 15.0767C4.36849 15.4662 4.68254 15.7802 5.07152 15.7782L12.3359 15.7497L12.3075 23.0141C12.3054 23.4031 12.62 23.7177 13.009 23.7156L15.0011 23.7078C15.3906 23.7063 15.7071 23.3898 15.7082 23.0008L15.7367 15.7364L23.0011 15.7079C23.3901 15.7069 23.7071 15.3898 23.7081 15.0009L23.7159 13.0087C23.7175 12.6192 23.4034 12.3052 23.0144 12.3072L15.75 12.3357L15.7785 5.07124C15.7792 4.8765 15.7011 4.70094 15.5742 4.574Z" fill="white"/>
</svg>
