<svg width="28" height="28" viewBox="0 0 28 28" fill="none" xmlns="http://www.w3.org/2000/svg">
<rect width="28" height="28" rx="3" fill="#F04A21"/>
<path d="M7.45219 5.09004C7.24306 5.09125 7.03416 5.17212 6.87571 5.33283L5.25053 6.97694C4.93281 7.29836 4.9358 7.81577 5.25722 8.13268L11.2524 14.0589L5.32623 20.0541C5.00851 20.3755 5.0115 20.8929 5.33292 21.2098L6.97702 22.835C7.29844 23.1527 7.81586 23.1497 8.13276 22.8283L14.0589 16.8331L20.0541 22.7593C20.3747 23.077 20.893 23.074 21.2099 22.7526L22.8351 21.1085C23.1528 20.7871 23.1498 20.2696 22.8284 19.9527L16.8332 14.0266L22.7594 8.03136C23.0771 7.71076 23.0741 7.19253 22.7527 6.87562L21.1086 5.25044C20.7871 4.93272 20.2697 4.93572 19.9528 5.25713L14.0266 11.2523L8.03145 5.32614C7.87074 5.16728 7.66132 5.08883 7.45219 5.09004Z" fill="white"/>
</svg>
