<svg width="28" height="27" viewBox="0 0 28 27" fill="none" xmlns="http://www.w3.org/2000/svg">
<rect width="28" height="27" rx="3" fill="#F04A21"/>
<path d="M7.45219 3.47623C7.24306 3.47759 7.03416 3.56858 6.87571 3.74938L5.25053 5.59899C4.93281 5.96059 4.9358 6.54268 5.25722 6.8992L11.2524 13.5662L5.32623 20.3107C5.00851 20.6723 5.0115 21.2544 5.33292 21.611L6.97702 23.4393C7.29844 23.7967 7.81586 23.7933 8.13276 23.4318L14.0589 16.6872L20.0541 23.3541C20.3747 23.7116 20.893 23.7082 21.2099 23.3466L22.8351 21.497C23.1528 21.1354 23.1498 20.5533 22.8284 20.1968L16.8332 13.5298L22.7594 6.78522C23.0771 6.42454 23.0741 5.84153 22.7527 5.48501L21.1086 3.65669C20.7871 3.29925 20.2697 3.30262 19.9528 3.66421L14.0266 10.4088L8.03145 3.74185C7.87074 3.56313 7.66132 3.47487 7.45219 3.47623Z" fill="#F7E2BF"/>
</svg>
