<svg width="28" height="27" viewBox="0 0 28 27" fill="none" xmlns="http://www.w3.org/2000/svg">
<rect width="28" height="27" rx="3" fill="#D97706"/>
<path d="M19.8712 4.5C19.4874 4.5 19.1035 4.64658 18.8107 4.93945L17.0001 6.75L20.7501 10.5L22.5607 8.68945C23.1464 8.1037 23.1464 7.15411 22.5607 6.56836L20.9318 4.93945C20.6389 4.64658 20.255 4.5 19.8712 4.5ZM15.5001 8.25L6.69484 17.0552C6.69484 17.0552 7.38317 16.9935 7.63967 17.25C7.89617 17.5065 7.68502 19.185 8.00002 19.5C8.31503 19.815 9.98296 19.5933 10.2222 19.8325C10.4615 20.0718 10.4449 20.8052 10.4449 20.8052L19.2501 12L15.5001 8.25ZM5.75001 19.5L5.04248 21.5039C5.01467 21.583 5.00031 21.6662 5 21.75C5 21.9489 5.07902 22.1397 5.21967 22.2803C5.36032 22.421 5.55109 22.5 5.75001 22.5C5.83384 22.4997 5.91702 22.4853 5.9961 22.4575C5.99855 22.4566 6.00099 22.4556 6.00343 22.4546L6.02247 22.4487C6.02394 22.4478 6.0254 22.4468 6.02686 22.4458L8.00002 21.75L6.87501 20.625L5.75001 19.5Z" fill="#F7E2BF"/>
</svg>
