<svg width="28" height="28" viewBox="0 0 28 28" fill="none" xmlns="http://www.w3.org/2000/svg">
<rect width="28" height="28" rx="3" fill="#D97706"/>
<path d="M19.8712 5C19.4874 5 19.1035 5.14658 18.8107 5.43945L17.0001 7.25L20.7501 11L22.5607 9.18945C23.1464 8.6037 23.1464 7.65411 22.5607 7.06836L20.9318 5.43945C20.6389 5.14658 20.255 5 19.8712 5ZM15.5001 8.75L6.69484 17.5552C6.69484 17.5552 7.38317 17.4935 7.63967 17.75C7.89617 18.0065 7.68502 19.685 8.00002 20C8.31503 20.315 9.98296 20.0933 10.2222 20.3325C10.4615 20.5718 10.4449 21.3052 10.4449 21.3052L19.2501 12.5L15.5001 8.75ZM5.75001 20L5.04248 22.0039C5.01467 22.083 5.00031 22.1662 5 22.25C5 22.4489 5.07902 22.6397 5.21967 22.7803C5.36032 22.921 5.55109 23 5.75001 23C5.83384 22.9997 5.91702 22.9853 5.9961 22.9575C5.99855 22.9566 6.00099 22.9556 6.00343 22.9546L6.02247 22.9487C6.02394 22.9478 6.0254 22.9468 6.02686 22.9458L8.00002 22.25L6.87501 21.125L5.75001 20Z" fill="white"/>
</svg>
