<svg width="60" height="60" viewBox="0 0 60 60" fill="none" xmlns="http://www.w3.org/2000/svg">
<path d="M59.98 29.99C59.98 38.0391 56.8088 45.3477 51.6478 50.7342C46.1891 56.4323 38.5037 59.98 29.99 59.98C21.4763 59.98 13.7909 56.4323 8.33221 50.7342C3.17118 45.3476 0 38.0391 0 29.99C0 13.4272 13.4272 0 29.99 0C46.5528 0 59.98 13.4272 59.98 29.99Z" fill="#E7E7E7"/>
<path d="M29.99 31.5997C36.7564 31.5997 42.2417 26.1145 42.2417 19.3481C42.2417 12.5816 36.7564 7.09636 29.99 7.09636C23.2236 7.09636 17.7383 12.5816 17.7383 19.3481C17.7383 26.1145 23.2236 31.5997 29.99 31.5997Z" fill="#B0B6B7"/>
<path d="M50.6318 48.2552C50.3917 48.5267 50.1459 48.7937 49.8949 49.0556C44.878 54.2925 37.8149 57.5529 29.9902 57.5529C22.1655 57.5529 15.1024 54.2925 10.0855 49.0556C9.83456 48.7938 9.58883 48.5268 9.34863 48.2552C9.34863 39.7704 14.2694 35.2684 29.9902 35.2684C46.2931 35.2684 50.6318 40.5222 50.6318 48.2552Z" fill="#B0B6B7"/>
</svg>
